<?xml version="1.0" standalone="no"?>
<!DOCTYPE svg PUBLIC "-//W3C//DTD SVG 20010904//EN"
 "http://www.w3.org/TR/2001/REC-SVG-20010904/DTD/svg10.dtd">
<svg version="1.0" xmlns="http://www.w3.org/2000/svg"
 width="700.000000pt" height="700.000000pt" viewBox="0 0 700.000000 700.000000"
 preserveAspectRatio="xMidYMid meet">
<metadata>
Created by potrace 1.14, written by Peter Selinger 2001-2017
</metadata>
<g transform="translate(0.000000,700.000000) scale(0.100000,-0.100000)"
fill="#000000" stroke="none">
<path d="M3133 6775 c-929 -106 -1739 -553 -2309 -1275 -240 -304 -452 -724
-560 -1105 -124 -442 -151 -941 -74 -1395 109 -644 409 -1230 873 -1707 933
-959 2355 -1277 3627 -811 163 60 476 213 620 303 721 455 1244 1162 1444
1950 69 274 97 507 97 805 0 506 -108 965 -333 1413 -326 652 -837 1158 -1503
1487 -342 169 -672 270 -1065 326 -160 22 -651 28 -817 9z m1852 -1473 c455
-538 467 -554 449 -572 -11 -9 -223 -180 -471 -379 l-453 -361 -1033 0 -1033
0 -71 85 -72 86 628 502 c346 276 835 667 1087 868 l459 367 21 -22 c12 -11
232 -270 489 -574z"/>
<path d="M4377 5388 c-47 -140 -249 -723 -251 -725 0 -1 -84 23 -185 53 -101
30 -185 53 -186 52 -1 -2 -20 -56 -43 -120 l-41 -118 310 -101 c171 -56 314
-97 319 -93 8 10 360 1026 360 1040 0 8 -233 86 -252 84 -3 0 -17 -33 -31 -72z"/>
</g>
</svg>
