<svg id="Warstwa_1" data-name="Warstwa 1" xmlns="http://www.w3.org/2000/svg" viewBox="0 0 2485.44 800.33"><defs><style>.cls-1,.cls-2,.cls-3,.cls-5{fill:none;stroke-miterlimit:10;stroke-width:10px;}.cls-1{stroke:#203f80;}.cls-2{stroke:#3161a3;}.cls-3{stroke:#d8d8d8;}.cls-4{fill:#e11e24;}.cls-5{stroke:#efefef;}.cls-6{fill:#efefef;}.cls-7{fill:#d1d1d1;}.cls-8{fill:#fff;}.cls-9{fill:#203f80;}.cls-10{fill:#3161a3;}</style></defs><title>logo system wyborczy</title><rect class="cls-1" x="1714.85" y="360.55" width="600" height="301.08"/><rect class="cls-2" x="1714.85" y="360.55" width="301.08" height="301.08"/><rect class="cls-3" x="1863.49" y="184.71" width="395.53" height="216.42" transform="translate(283.86 1377.1) rotate(-39.47)"/><polygon class="cls-4" points="2051.84 253.92 2040.37 288.08 2129.16 317.91 2181.17 163.12 2145.17 151.02 2105.17 270.07 2051.84 253.92"/><polygon class="cls-5" points="2014.85 190.95 2015.93 360.55 1860.75 360.55 1839.8 335.1 2014.85 190.95"/><circle class="cls-6" cx="503.93" cy="400.17" r="364.67"/><rect class="cls-7" x="391.97" y="213.23" width="306.61" height="167.77" transform="translate(-64.52 414.37) rotate(-39.47)"/><polygon class="cls-4" points="532.03 262.37 523.35 288.21 590.5 310.77 629.84 193.7 602.61 184.55 572.36 274.59 532.03 262.37"/><polygon class="cls-8" points="509.3 218.07 510.14 349.54 389.85 349.54 373.6 329.81 509.3 218.07"/><rect class="cls-9" x="276.75" y="349.54" width="465.11" height="233.39"/><rect class="cls-10" x="276.75" y="349.54" width="233.39" height="233.39"/><rect class="cls-7" x="1139.07" y="178.82" width="382.46" height="209.27" transform="translate(123.19 910.29) rotate(-39.47)"/><polygon class="cls-4" points="1313.78 240.11 1302.95 272.34 1386.72 300.48 1435.79 154.45 1401.83 143.04 1364.09 255.35 1313.78 240.11"/><polygon class="cls-6" points="1285.44 184.85 1286.48 348.84 1136.42 348.84 1116.16 324.24 1285.44 184.85"/><rect class="cls-9" x="995.35" y="348.84" width="580.18" height="291.13"/><rect class="cls-10" x="995.35" y="348.84" width="291.13" height="291.13"/></svg>